<?xml version="1.0" standalone="no"?><!DOCTYPE svg PUBLIC "-//W3C//DTD SVG 1.1//EN" "http://www.w3.org/Graphics/SVG/1.1/DTD/svg11.dtd"><svg t="1700283563500" class="icon" viewBox="0 0 1024 1024" version="1.1" xmlns="http://www.w3.org/2000/svg" p-id="4041" data-darkreader-inline-fill="" xmlns:xlink="http://www.w3.org/1999/xlink" width="200" height="200"><path d="M832 246.176V96h32v192h-192V256h126.208A383.04 383.04 0 0 0 512 128C299.936 128 128 299.936 128 512s171.936 384 384 384c190.272 0 348.224-138.4 378.688-320h32.416C892.32 775.36 720 928 512 928 282.24 928 96 741.76 96 512S282.24 96 512 96c128.64 0 243.68 58.4 320 150.176zM512 608a96 96 0 1 1 0-192 96 96 0 0 1 0 192z" fill="#ffffff" p-id="4042" data-darkreader-inline-fill="" style="--darkreader-inline-fill: #202325;"></path></svg>